mtllib materials.mtl
# Wavefront OBJ file
# Generated by citygml-to-obj v1.0.0
# Object: 2.obj
#
g Building_0
o Building_0
usemtl Building
v 6691.54400000 2386.43200000 3.80300000
v 6700.39800000 2412.48000000 3.80300000
v 6700.39800000 2412.48000000 10.73600000
v 6691.54400000 2386.43200000 10.73600000
vn 0.94679844 -0.32182714 0.00000000
vn 0.94679844 -0.32182714 0.00000000
vn 0.94679844 -0.32182714 0.00000000
vn 0.94679844 -0.32182714 0.00000000
g Building_1
o Building_1
usemtl Building
v 6691.54400000 2386.43200000 3.80300000
v 6700.39800000 2412.48000000 3.80300000
v 6700.39800000 2412.48000000 10.73600000
v 6691.54400000 2386.43200000 10.73600000
vn 0.94679844 -0.32182714 0.00000000
vn 0.94679844 -0.32182714 0.00000000
vn 0.94679844 -0.32182714 0.00000000
vn 0.94679844 -0.32182714 0.00000000
g Building_2
o Building_2
usemtl Building
v 6700.39800000 2412.48000000 3.80300000
v 6712.24900000 2408.46700000 3.80300000
v 6712.24900000 2408.46700000 10.73600000
v 6700.39800000 2412.48000000 10.73600000
vn -0.32073187 -0.94717003 0.00000000
vn -0.32073187 -0.94717003 0.00000000
vn -0.32073187 -0.94717003 0.00000000
vn -0.32073187 -0.94717003 0.00000000
g Building_3
o Building_3
usemtl Building
v 6700.39800000 2412.48000000 3.80300000
v 6712.24900000 2408.46700000 3.80300000
v 6712.24900000 2408.46700000 10.73600000
v 6700.39800000 2412.48000000 10.73600000
vn -0.32073187 -0.94717003 0.00000000
vn -0.32073187 -0.94717003 0.00000000
vn -0.32073187 -0.94717003 0.00000000
vn -0.32073187 -0.94717003 0.00000000
g Building_4
o Building_4
usemtl Building
v 6712.24900000 2408.46700000 3.80300000
v 6703.38400000 2382.40700000 3.80300000
v 6703.38400000 2382.40700000 10.73600000
v 6712.24900000 2408.46700000 10.73600000
vn -0.94672180 0.32205252 0.00000000
vn -0.94672180 0.32205252 0.00000000
vn -0.94672180 0.32205252 0.00000000
vn -0.94672180 0.32205252 0.00000000
g Building_5
o Building_5
usemtl Building
v 6712.24900000 2408.46700000 3.80300000
v 6703.38400000 2382.40700000 3.80300000
v 6703.38400000 2382.40700000 10.73600000
v 6712.24900000 2408.46700000 10.73600000
vn -0.94672180 0.32205252 0.00000000
vn -0.94672180 0.32205252 0.00000000
vn -0.94672180 0.32205252 0.00000000
vn -0.94672180 0.32205252 0.00000000
g Building_6
o Building_6
usemtl Building
v 6703.38400000 2382.40700000 3.80300000
v 6691.54400000 2386.43200000 3.80300000
v 6691.54400000 2386.43200000 10.73600000
v 6703.38400000 2382.40700000 10.73600000
vn 0.32185973 0.94678737 0.00000000
vn 0.32185973 0.94678737 0.00000000
vn 0.32185973 0.94678737 0.00000000
vn 0.32185973 0.94678737 0.00000000
g Building_7
o Building_7
usemtl Building
v 6703.38400000 2382.40700000 3.80300000
v 6691.54400000 2386.43200000 3.80300000
v 6691.54400000 2386.43200000 10.73600000
v 6703.38400000 2382.40700000 10.73600000
vn 0.32185973 0.94678737 0.00000000
vn 0.32185973 0.94678737 0.00000000
vn 0.32185973 0.94678737 0.00000000
vn 0.32185973 0.94678737 0.00000000
g Building_8
o Building_8
usemtl Building
v 6700.39800000 2412.48000000 10.73600000
v 6700.77100000 2411.72600000 10.73600000
v 6711.49300000 2408.09400000 10.73600000
v 6712.24900000 2408.46700000 10.73600000
vn 0.00000000 0.00000000 1.00000000
vn 0.00000000 0.00000000 1.00000000
vn 0.00000000 0.00000000 1.00000000
vn 0.00000000 0.00000000 1.00000000
f 35//33 36//33 33//33
f 33//34 34//34 35//34
g Building_9
o Building_9
usemtl Building
v 6700.39800000 2412.48000000 10.73600000
v 6700.77100000 2411.72600000 10.73600000
v 6711.49300000 2408.09400000 10.73600000
v 6712.24900000 2408.46700000 10.73600000
vn 0.00000000 0.00000000 1.00000000
vn 0.00000000 0.00000000 1.00000000
vn 0.00000000 0.00000000 1.00000000
vn 0.00000000 0.00000000 1.00000000
f 39//37 40//37 37//37
f 37//38 38//38 39//38
g Building_10
o Building_10
usemtl Building
v 6712.24900000 2408.46700000 10.73600000
v 6711.49300000 2408.09400000 10.73600000
v 6703.01300000 2383.16300000 10.73600000
v 6703.38400000 2382.40700000 10.73600000
vn 0.00000000 0.00000000 1.00000000
vn 0.00000000 0.00000000 1.00000000
vn 0.00000000 0.00000000 1.00000000
vn 0.00000000 0.00000000 1.00000000
f 43//41 44//41 41//41
f 41//42 42//42 43//42
g Building_11
o Building_11
usemtl Building
v 6712.24900000 2408.46700000 10.73600000
v 6711.49300000 2408.09400000 10.73600000
v 6703.01300000 2383.16300000 10.73600000
v 6703.38400000 2382.40700000 10.73600000
vn 0.00000000 0.00000000 1.00000000
vn 0.00000000 0.00000000 1.00000000
vn 0.00000000 0.00000000 1.00000000
vn 0.00000000 0.00000000 1.00000000
f 47//45 48//45 45//45
f 45//46 46//46 47//46
g Building_12
o Building_12
usemtl Building
v 6703.38400000 2382.40700000 10.73600000
v 6703.01300000 2383.16300000 10.73600000
v 6692.29800000 2386.80400000 10.73600000
v 6691.54400000 2386.43200000 10.73600000
vn 0.00000000 0.00000000 1.00000000
vn 0.00000000 0.00000000 1.00000000
vn 0.00000000 0.00000000 1.00000000
vn 0.00000000 0.00000000 1.00000000
f 51//49 52//49 49//49
f 49//50 50//50 51//50
g Building_13
o Building_13
usemtl Building
v 6703.38400000 2382.40700000 10.73600000
v 6703.01300000 2383.16300000 10.73600000
v 6692.29800000 2386.80400000 10.73600000
v 6691.54400000 2386.43200000 10.73600000
vn 0.00000000 0.00000000 1.00000000
vn 0.00000000 0.00000000 1.00000000
vn 0.00000000 0.00000000 1.00000000
vn 0.00000000 0.00000000 1.00000000
f 55//53 56//53 53//53
f 53//54 54//54 55//54
g Building_14
o Building_14
usemtl Building
v 6691.54400000 2386.43200000 10.73600000
v 6692.29800000 2386.80400000 10.73600000
v 6700.77100000 2411.72600000 10.73600000
v 6700.39800000 2412.48000000 10.73600000
vn 0.00000000 0.00000000 1.00000000
vn 0.00000000 0.00000000 1.00000000
vn 0.00000000 0.00000000 1.00000000
vn 0.00000000 0.00000000 1.00000000
f 59//57 60//57 57//57
f 57//58 58//58 59//58
g Building_15
o Building_15
usemtl Building
v 6691.54400000 2386.43200000 10.73600000
v 6692.29800000 2386.80400000 10.73600000
v 6700.77100000 2411.72600000 10.73600000
v 6700.39800000 2412.48000000 10.73600000
vn 0.00000000 0.00000000 1.00000000
vn 0.00000000 0.00000000 1.00000000
vn 0.00000000 0.00000000 1.00000000
vn 0.00000000 0.00000000 1.00000000
f 63//61 64//61 61//61
f 61//62 62//62 63//62
g Building_16
o Building_16
usemtl Building
v 6700.77100000 2411.72600000 10.34200000
v 6692.29800000 2386.80400000 10.34200000
v 6703.01300000 2383.16300000 10.34200000
v 6711.49300000 2408.09400000 10.34200000
vn 0.00000000 0.00000000 1.00000000
vn 0.00000000 0.00000000 1.00000000
vn 0.00000000 0.00000000 1.00000000
vn 0.00000000 0.00000000 1.00000000
f 67//65 68//65 65//65
f 65//66 66//66 67//66
g Building_17
o Building_17
usemtl Building
v 6700.77100000 2411.72600000 10.34200000
v 6692.29800000 2386.80400000 10.34200000
v 6703.01300000 2383.16300000 10.34200000
v 6711.49300000 2408.09400000 10.34200000
vn 0.00000000 0.00000000 1.00000000
vn 0.00000000 0.00000000 1.00000000
vn 0.00000000 0.00000000 1.00000000
vn 0.00000000 0.00000000 1.00000000
f 71//69 72//69 69//69
f 69//70 70//70 71//70
g Building_18
o Building_18
usemtl Building
v 6700.77100000 2411.72600000 10.73600000
v 6711.49300000 2408.09400000 10.73600000
v 6711.49300000 2408.09400000 10.34200000
v 6700.77100000 2411.72600000 10.34200000
vn 0.32083515 0.94713505 0.00000000
vn 0.32083515 0.94713505 0.00000000
vn 0.32083515 0.94713505 0.00000000
vn 0.32083515 0.94713505 0.00000000
g Building_19
o Building_19
usemtl Building
v 6700.77100000 2411.72600000 10.73600000
v 6711.49300000 2408.09400000 10.73600000
v 6711.49300000 2408.09400000 10.34200000
v 6700.77100000 2411.72600000 10.34200000
vn 0.32083515 0.94713505 0.00000000
vn 0.32083515 0.94713505 0.00000000
vn 0.32083515 0.94713505 0.00000000
vn 0.32083515 0.94713505 0.00000000
g Building_20
o Building_20
usemtl Building
v 6711.49300000 2408.09400000 10.73600000
v 6703.01300000 2383.16300000 10.73600000
v 6703.01300000 2383.16300000 10.34200000
v 6711.49300000 2408.09400000 10.34200000
vn 0.94673269 -0.32202051 0.00000000
vn 0.94673269 -0.32202051 0.00000000
vn 0.94673269 -0.32202051 0.00000000
vn 0.94673269 -0.32202051 0.00000000
g Building_21
o Building_21
usemtl Building
v 6711.49300000 2408.09400000 10.73600000
v 6703.01300000 2383.16300000 10.73600000
v 6703.01300000 2383.16300000 10.34200000
v 6711.49300000 2408.09400000 10.34200000
vn 0.94673269 -0.32202051 0.00000000
vn 0.94673269 -0.32202051 0.00000000
vn 0.94673269 -0.32202051 0.00000000
vn 0.94673269 -0.32202051 0.00000000
g Building_22
o Building_22
usemtl Building
v 6703.01300000 2383.16300000 10.73600000
v 6692.29800000 2386.80400000 10.73600000
v 6692.29800000 2386.80400000 10.34200000
v 6703.01300000 2383.16300000 10.34200000
vn -0.32173639 -0.94682928 0.00000000
vn -0.32173639 -0.94682928 0.00000000
vn -0.32173639 -0.94682928 0.00000000
vn -0.32173639 -0.94682928 0.00000000
g Building_23
o Building_23
usemtl Building
v 6703.01300000 2383.16300000 10.73600000
v 6692.29800000 2386.80400000 10.73600000
v 6692.29800000 2386.80400000 10.34200000
v 6703.01300000 2383.16300000 10.34200000
vn -0.32173639 -0.94682928 0.00000000
vn -0.32173639 -0.94682928 0.00000000
vn -0.32173639 -0.94682928 0.00000000
vn -0.32173639 -0.94682928 0.00000000
g Building_24
o Building_24
usemtl Building
v 6692.29800000 2386.80400000 10.73600000
v 6700.77100000 2411.72600000 10.73600000
v 6700.77100000 2411.72600000 10.34200000
v 6692.29800000 2386.80400000 10.34200000
vn -0.94677830 0.32188639 0.00000000
vn -0.94677830 0.32188639 0.00000000
vn -0.94677830 0.32188639 0.00000000
vn -0.94677830 0.32188639 0.00000000
g Building_25
o Building_25
usemtl Building
v 6692.29800000 2386.80400000 10.73600000
v 6700.77100000 2411.72600000 10.73600000
v 6700.77100000 2411.72600000 10.34200000
v 6692.29800000 2386.80400000 10.34200000
vn -0.94677830 0.32188639 0.00000000
vn -0.94677830 0.32188639 0.00000000
vn -0.94677830 0.32188639 0.00000000
vn -0.94677830 0.32188639 0.00000000
g Building_26
o Building_26
usemtl Building
v 6712.24900000 2408.46700000 8.64600000
v 6703.38400000 2382.40700000 8.64600000
v 6704.80900000 2381.92300000 8.64600000
v 6713.72700000 2407.98800000 8.64600000
vn 0.00000000 0.00000000 1.00000000
vn 0.00000000 0.00000000 1.00000000
vn 0.00000000 0.00000000 1.00000000
vn 0.00000000 0.00000000 1.00000000
f 107//105 108//105 105//105
f 105//106 106//106 107//106
g Building_27
o Building_27
usemtl Building
v 6712.24900000 2408.46700000 8.64600000
v 6703.38400000 2382.40700000 8.64600000
v 6704.80900000 2381.92300000 8.64600000
v 6713.72700000 2407.98800000 8.64600000
vn 0.00000000 0.00000000 1.00000000
vn 0.00000000 0.00000000 1.00000000
vn 0.00000000 0.00000000 1.00000000
vn 0.00000000 0.00000000 1.00000000
f 111//109 112//109 109//109
f 109//110 110//110 111//110
g Building_28
o Building_28
usemtl Building
v 6712.24900000 2408.46700000 8.24400000
v 6713.72700000 2407.98800000 8.24400000
v 6713.72700000 2407.98800000 8.64600000
v 6712.24900000 2408.46700000 8.64600000
vn -0.30830007 -0.95128916 0.00000000
vn -0.30830007 -0.95128916 0.00000000
vn -0.30830007 -0.95128916 0.00000000
vn -0.30830007 -0.95128916 0.00000000
g Building_29
o Building_29
usemtl Building
v 6712.24900000 2408.46700000 8.24400000
v 6713.72700000 2407.98800000 8.24400000
v 6713.72700000 2407.98800000 8.64600000
v 6712.24900000 2408.46700000 8.64600000
vn -0.30830007 -0.95128916 0.00000000
vn -0.30830007 -0.95128916 0.00000000
vn -0.30830007 -0.95128916 0.00000000
vn -0.30830007 -0.95128916 0.00000000
g Building_30
o Building_30
usemtl Building
v 6713.72700000 2407.98800000 8.24400000
v 6704.80900000 2381.92300000 8.24400000
v 6704.80900000 2381.92300000 8.64600000
v 6713.72700000 2407.98800000 8.64600000
vn -0.94615257 0.32372103 0.00000000
vn -0.94615257 0.32372103 0.00000000
vn -0.94615257 0.32372103 0.00000000
vn -0.94615257 0.32372103 0.00000000
g Building_31
o Building_31
usemtl Building
v 6713.72700000 2407.98800000 8.24400000
v 6704.80900000 2381.92300000 8.24400000
v 6704.80900000 2381.92300000 8.64600000
v 6713.72700000 2407.98800000 8.64600000
vn -0.94615257 0.32372103 0.00000000
vn -0.94615257 0.32372103 0.00000000
vn -0.94615257 0.32372103 0.00000000
vn -0.94615257 0.32372103 0.00000000
g Building_32
o Building_32
usemtl Building
v 6704.80900000 2381.92300000 8.24400000
v 6703.38400000 2382.40700000 8.24400000
v 6703.38400000 2382.40700000 8.64600000
v 6704.80900000 2381.92300000 8.64600000
vn 0.32160491 0.94687395 0.00000000
vn 0.32160491 0.94687395 0.00000000
vn 0.32160491 0.94687395 0.00000000
vn 0.32160491 0.94687395 0.00000000
g Building_33
o Building_33
usemtl Building
v 6704.80900000 2381.92300000 8.24400000
v 6703.38400000 2382.40700000 8.24400000
v 6703.38400000 2382.40700000 8.64600000
v 6704.80900000 2381.92300000 8.64600000
vn 0.32160491 0.94687395 0.00000000
vn 0.32160491 0.94687395 0.00000000
vn 0.32160491 0.94687395 0.00000000
vn 0.32160491 0.94687395 0.00000000
g Building_34
o Building_34
usemtl Building
v 6703.38400000 2382.40700000 8.24400000
v 6704.80900000 2381.92300000 8.24400000
v 6713.72700000 2407.98800000 8.24400000
v 6712.24900000 2408.46700000 8.24400000
vn 0.00000000 0.00000000 1.00000000
vn 0.00000000 0.00000000 1.00000000
vn 0.00000000 0.00000000 1.00000000
vn 0.00000000 0.00000000 1.00000000
f 139//137 140//137 137//137
f 137//138 138//138 139//138
g Building_35
o Building_35
usemtl Building
v 6703.38400000 2382.40700000 8.24400000
v 6704.80900000 2381.92300000 8.24400000
v 6713.72700000 2407.98800000 8.24400000
v 6712.24900000 2408.46700000 8.24400000
vn 0.00000000 0.00000000 1.00000000
vn 0.00000000 0.00000000 1.00000000
vn 0.00000000 0.00000000 1.00000000
vn 0.00000000 0.00000000 1.00000000
f 143//141 144//141 141//141
f 141//142 142//142 143//142
g Building_36
o Building_36
usemtl Building
v 6691.54400000 2386.43200000 8.66400000
v 6700.39800000 2412.48000000 8.66400000
v 6698.96200000 2412.96800000 8.66400000
v 6690.09300000 2386.87400000 8.66400000
vn 0.00000000 0.00000000 1.00000000
vn 0.00000000 0.00000000 1.00000000
vn 0.00000000 0.00000000 1.00000000
vn 0.00000000 0.00000000 1.00000000
f 147//145 148//145 145//145
f 145//146 146//146 147//146
g Building_37
o Building_37
usemtl Building
v 6691.54400000 2386.43200000 8.66400000
v 6700.39800000 2412.48000000 8.66400000
v 6698.96200000 2412.96800000 8.66400000
v 6690.09300000 2386.87400000 8.66400000
vn 0.00000000 0.00000000 1.00000000
vn 0.00000000 0.00000000 1.00000000
vn 0.00000000 0.00000000 1.00000000
vn 0.00000000 0.00000000 1.00000000
f 151//149 152//149 149//149
f 149//150 150//150 151//150
g Building_38
o Building_38
usemtl Building
v 6691.54400000 2386.43200000 8.02800000
v 6690.09300000 2386.87400000 8.02800000
v 6690.09300000 2386.87400000 8.66400000
v 6691.54400000 2386.43200000 8.66400000
vn 0.29139771 0.95660199 0.00000000
vn 0.29139771 0.95660199 0.00000000
vn 0.29139771 0.95660199 0.00000000
vn 0.29139771 0.95660199 0.00000000
g Building_39
o Building_39
usemtl Building
v 6691.54400000 2386.43200000 8.02800000
v 6690.09300000 2386.87400000 8.02800000
v 6690.09300000 2386.87400000 8.66400000
v 6691.54400000 2386.43200000 8.66400000
vn 0.29139771 0.95660199 0.00000000
vn 0.29139771 0.95660199 0.00000000
vn 0.29139771 0.95660199 0.00000000
vn 0.29139771 0.95660199 0.00000000
g Building_40
o Building_40
usemtl Building
v 6690.09300000 2386.87400000 8.02800000
v 6698.96200000 2412.96800000 8.02800000
v 6698.96200000 2412.96800000 8.66400000
v 6690.09300000 2386.87400000 8.66400000
vn 0.94680547 -0.32180646 0.00000000
vn 0.94680547 -0.32180646 0.00000000
vn 0.94680547 -0.32180646 0.00000000
vn 0.94680547 -0.32180646 0.00000000
g Building_41
o Building_41
usemtl Building
v 6690.09300000 2386.87400000 8.02800000
v 6698.96200000 2412.96800000 8.02800000
v 6698.96200000 2412.96800000 8.66400000
v 6690.09300000 2386.87400000 8.66400000
vn 0.94680547 -0.32180646 0.00000000
vn 0.94680547 -0.32180646 0.00000000
vn 0.94680547 -0.32180646 0.00000000
vn 0.94680547 -0.32180646 0.00000000
g Building_42
o Building_42
usemtl Building
v 6698.96200000 2412.96800000 8.02800000
v 6700.39800000 2412.48000000 8.02800000
v 6700.39800000 2412.48000000 8.66400000
v 6698.96200000 2412.96800000 8.66400000
vn -0.32176088 -0.94682096 0.00000000
vn -0.32176088 -0.94682096 0.00000000
vn -0.32176088 -0.94682096 0.00000000
vn -0.32176088 -0.94682096 0.00000000
g Building_43
o Building_43
usemtl Building
v 6698.96200000 2412.96800000 8.02800000
v 6700.39800000 2412.48000000 8.02800000
v 6700.39800000 2412.48000000 8.66400000
v 6698.96200000 2412.96800000 8.66400000
vn -0.32176088 -0.94682096 0.00000000
vn -0.32176088 -0.94682096 0.00000000
vn -0.32176088 -0.94682096 0.00000000
vn -0.32176088 -0.94682096 0.00000000
g Building_44
o Building_44
usemtl Building
v 6700.39800000 2412.48000000 8.02800000
v 6698.96200000 2412.96800000 8.02800000
v 6690.09300000 2386.87400000 8.02800000
v 6691.54400000 2386.43200000 8.02800000
vn 0.00000000 0.00000000 1.00000000
vn 0.00000000 0.00000000 1.00000000
vn 0.00000000 0.00000000 1.00000000
vn 0.00000000 0.00000000 1.00000000
f 179//177 180//177 177//177
f 177//178 178//178 179//178
g Building_45
o Building_45
usemtl Building
v 6700.39800000 2412.48000000 8.02800000
v 6698.96200000 2412.96800000 8.02800000
v 6690.09300000 2386.87400000 8.02800000
v 6691.54400000 2386.43200000 8.02800000
vn 0.00000000 0.00000000 1.00000000
vn 0.00000000 0.00000000 1.00000000
vn 0.00000000 0.00000000 1.00000000
vn 0.00000000 0.00000000 1.00000000
f 183//181 184//181 181//181
f 181//182 182//182 183//182
